<svg xmlns="http://www.w3.org/2000/svg" version="1.0" preserveAspectRatio="xMidYMid meet" viewBox="84 82.98 313.5 100.84">

<g transform="translate(0.000000,273.000000) scale(0.100000,-0.100000)" fill="#000000" stroke="none">
<path d="M3299 1893 c-1 -5 -1 -16 0 -25 2 -13 -5 -18 -22 -18 -34 0 -77 -36 -77 -65 0 -44 124 -135 186 -135 15 0 28 -15 49 -60 16 -33 25 -63 21 -67 -4 -5 -35 -12 -69 -18 -34 -5 -61 -14 -60 -20 1 -5 23 -14 50 -19 26 -6 53 -17 60 -25 17 -24 260 -23 274 0 5 10 28 20 54 24 64 9 52 28 -25 40 -35 6 -65 16 -67 22 -2 6 34 88 81 182 48 94 86 175 86 181 0 12 -539 14 -541 3z m51 -134 c17 -33 30 -65 28 -69 -9 -25 -148 66 -148 96 0 18 29 33 62 34 24 0 32 -8 58 -61z"/>
<path d="M1110 1780 l0 -91 -28 21 c-98 73 -242 -13 -242 -144 0 -53 32 -116 73 -143 43 -30 119 -31 165 -3 32 20 32 20 32 0 0 -16 7 -20 35 -20 l35 0 0 235 0 235 -35 0 -35 0 0 -90z m-27 -143 c31 -36 35 -82 12 -127 -43 -84 -163 -59 -181 37 -9 48 17 100 59 118 43 18 76 10 110 -28z"/>
<path d="M1287 1863 c-4 -3 -7 -109 -7 -235 l0 -228 35 0 c28 0 35 4 35 20 0 25 2 25 42 0 72 -44 169 -16 209 60 23 42 25 129 4 169 -32 62 -110 102 -169 87 -14 -3 -38 -18 -55 -32 l-31 -26 0 96 0 96 -28 0 c-16 0 -32 -3 -35 -7z m236 -224 c40 -43 38 -106 -4 -148 -41 -41 -86 -42 -131 -3 -26 24 -31 36 -31 73 0 56 16 87 56 104 42 18 76 10 110 -26z"/>
<path d="M2787 1863 c-4 -3 -7 -109 -7 -235 l0 -228 35 0 35 0 0 48 c0 38 5 53 23 70 13 12 26 22 29 22 3 0 26 -31 52 -70 44 -67 48 -70 86 -70 22 0 40 3 40 6 0 3 -30 49 -66 101 l-66 95 63 64 63 64 -44 0 c-42 0 -49 -4 -112 -67 l-68 -67 0 137 0 137 -28 0 c-16 0 -32 -3 -35 -7z"/>
<path d="M2250 1729 c-14 -6 -35 -20 -47 -31 l-23 -21 0 26 c0 24 -4 27 -35 27 l-35 0 0 -165 0 -165 35 0 35 0 0 94 c0 80 3 98 23 127 13 20 36 37 55 43 28 8 32 13 32 42 0 37 -2 38 -40 23z"/>
<path d="M2455 1733 c-35 -9 -87 -54 -101 -89 -33 -78 -5 -186 59 -224 46 -29 115 -26 161 5 l36 24 0 -24 c0 -22 4 -25 35 -25 l35 0 0 165 0 165 -35 0 c-31 0 -35 -3 -35 -27 l0 -26 -22 20 c-45 40 -78 49 -133 36z m91 -68 c99 -41 70 -205 -37 -205 -86 0 -132 109 -74 179 14 16 36 32 48 34 12 2 23 5 25 6 1 0 18 -6 38 -14z"/>
<path d="M1700 1610 c0 -165 25 -210 118 -210 44 0 102 23 102 40 0 6 5 10 10 10 6 0 10 -11 10 -25 0 -22 4 -25 35 -25 l35 0 0 165 0 165 -35 0 -35 0 0 -90 c0 -134 -25 -180 -99 -180 -20 0 -36 8 -50 26 -18 23 -21 41 -21 135 l0 109 -35 0 -35 0 0 -120z"/>
<path d="M3378 1392 c-25 -18 -21 -58 6 -54 15 3 17 0 11 -15 -5 -10 -10 -32 -13 -50 -2 -18 -10 -38 -18 -44 -8 -6 -14 -28 -14 -49 0 -21 -7 -43 -15 -50 -9 -7 -15 -30 -15 -54 0 -22 -7 -50 -15 -60 -8 -11 -15 -32 -15 -48 0 -36 34 -54 132 -69 88 -14 326 -6 382 12 37 13 75 53 62 66 -3 4 10 16 30 27 58 33 79 68 79 134 0 112 -62 182 -160 182 -56 0 -72 13 -60 51 3 9 1 20 -5 24 -7 4 -88 8 -182 9 -129 1 -175 -2 -190 -12z m365 -41 c10 -65 24 -120 36 -135 6 -7 11 -27 9 -42 -1 -16 6 -41 16 -57 11 -15 16 -38 14 -52 -3 -14 3 -36 13 -52 28 -42 24 -62 -17 -79 -106 -45 -500 -29 -505 19 -3 28 4 53 18 69 9 10 12 25 8 38 -4 13 1 36 14 61 12 22 21 52 21 67 0 15 7 36 15 46 8 10 12 23 9 27 -3 5 2 22 11 38 21 41 19 51 -10 51 -22 0 -24 3 -16 18 9 17 26 18 184 19 l175 0 5 -36z m127 -74 c70 -35 95 -156 45 -216 -45 -53 -93 -50 -79 6 4 14 -2 37 -15 59 -12 20 -20 43 -17 51 3 8 -1 27 -9 43 -25 49 -20 70 18 70 17 0 43 -6 57 -13z"/>
<path d="M3445 1239 c39 -9 232 -9 270 1 17 4 -44 7 -135 7 -91 0 -151 -4 -135 -8z"/>
<path d="M3390 1152 c0 -16 197 -25 291 -15 81 10 78 10 -88 12 -94 0 -178 4 -187 7 -9 3 -16 2 -16 -4z"/>
<path d="M3385 1028 c51 -9 316 -9 375 0 25 4 -58 7 -185 7 -126 0 -212 -3 -190 -7z"/>
<path d="M2435 1166 c-8 -19 -18 -60 -21 -91 -8 -65 -36 -108 -68 -103 -28 4 -33 34 -6 43 32 10 55 51 40 70 -7 8 -20 15 -29 15 -19 0 -61 -35 -61 -50 0 -6 -9 -10 -20 -10 -16 0 -20 7 -20 30 0 23 -5 30 -19 30 -25 0 -33 -33 -14 -60 17 -25 10 -70 -12 -70 -19 0 -27 32 -19 75 9 51 -13 45 -27 -7 -6 -24 -13 -49 -15 -56 -2 -7 -9 -10 -15 -6 -8 4 -10 26 -6 60 4 41 2 54 -8 54 -17 0 -25 -23 -25 -75 0 -49 21 -75 48 -58 12 7 22 7 35 -1 21 -13 47 0 64 34 11 22 31 40 46 40 4 0 7 -13 7 -28 0 -15 5 -33 12 -40 19 -19 59 -14 84 9 l22 21 11 -21 c7 -13 22 -21 37 -21 28 0 74 40 74 65 0 8 4 15 8 15 5 0 17 6 27 14 18 13 18 14 -8 9 -21 -4 -27 -1 -27 11 0 16 -38 38 -52 30 -4 -3 -4 21 -1 51 5 47 3 55 -11 55 -10 0 -23 -14 -31 -34z m26 -56 l-10 -25 0 25 c-1 14 3 36 7 50 l7 25 3 -25 c2 -14 -2 -37 -7 -50z m-224 -52 c-3 -8 -6 -5 -6 6 -1 11 2 17 5 13 3 -3 4 -12 1 -19z m123 2 c0 -10 -9 -24 -20 -30 -21 -11 -27 1 -14 34 9 23 34 20 34 -4z m144 4 c4 -9 4 -19 2 -22 -10 -9 -36 8 -36 23 0 20 26 19 34 -1z m-8 -69 c-20 -30 -43 -30 -50 0 -9 37 0 45 34 32 27 -10 28 -13 16 -32z"/>
<path d="M2760 1181 c-5 -11 -10 -36 -10 -56 0 -33 -2 -35 -26 -29 -39 10 -74 -28 -74 -81 0 -67 46 -90 74 -37 l15 27 1 -27 c0 -35 32 -38 54 -6 l16 22 16 -22 c20 -29 59 -28 88 2 l24 23 11 -24 c15 -33 50 -27 76 14 11 17 32 37 48 44 15 6 27 16 27 22 0 7 -4 7 -12 -1 -20 -20 -38 -14 -38 13 0 29 -28 45 -41 24 -13 -21 -11 -36 7 -54 15 -14 15 -18 -1 -41 -26 -39 -40 -25 -39 40 1 47 -1 56 -14 54 -9 -2 -19 -17 -22 -33 -15 -69 -60 -106 -86 -70 -12 16 -9 20 19 34 54 27 48 91 -8 77 -20 -5 -32 -20 -50 -60 -37 -84 -49 -82 -41 5 3 41 9 93 12 117 7 45 -7 57 -26 23z m130 -116 c0 -16 -27 -45 -41 -45 -11 0 -2 38 13 57 12 15 28 8 28 -12z m-150 -10 c0 -34 -28 -87 -43 -82 -16 5 -21 75 -6 93 20 24 49 17 49 -11z m298 0 c-3 -3 -9 2 -12 12 -6 14 -5 15 5 6 7 -7 10 -15 7 -18z"/>
</g>
</svg>